<svg width="238.130029296875px" height="39.8px" xmlns="http://www.w3.org/2000/svg" viewBox="-169.0650146484375 14.600000000000001 838.130029296875 120.8" style="background: rgba(0, 0, 0, 0);" preserveAspectRatio="xMidYMid"><defs><filter id="editing-extrusion" x="-100%" y="-100%" width="300%" height="300%"><feFlood result="color1" flood-color="#444"></feFlood><feConvolveMatrix order="8,8" divisor="1" kernelMatrix="1 0 0 0 0 0 0 0 0 1 0 0 0 0 0 0 0 0 1 0 0 0 0 0 0 0 0 1 0 0 0 0 0 0 0 0 1 0 0 0 0 0 0 0 0 1 0 0 0 0 0 0 0 0 1 0 0 0 0 0 0 0 0 1" in="SourceAlpha" result="extrude"></feConvolveMatrix><feComposite in="color1" in2="extrude" result="comp-extrude" operator="in"></feComposite><feOffset dx="4" dy="4" in="comp-extrude" result="offset-extrude"></feOffset><feMerge><feMergeNode in="offset-extrude"></feMergeNode><feMergeNode in="SourceGraphic"></feMergeNode></feMerge></filter></defs><g filter="url(#editing-extrusion)"><g transform="translate(-51.34500575065613, 102.8700008392334)"><path d="M2.05-15.62L2.05-15.62L2.05-15.62Q2.05-27.71 8.32-35.33L8.32-35.33L8.32-35.33Q14.98-43.58 26.56-43.58L26.56-43.58L26.56-43.58Q34.94-43.58 39.17-39.52L39.17-39.52L39.17-39.52Q43.39-35.46 43.39-26.88L43.39-26.88L43.39-26.88Q43.39-13.82 36.74-6.21L36.74-6.21L36.74-6.21Q30.14 1.28 19.07 1.28L19.07 1.28L19.07 1.28Q10.43 1.28 6.24-3.04L6.24-3.04L6.24-3.04Q2.05-7.36 2.05-15.62ZM18.88-28.86L18.88-28.86L18.88-28.86Q16-17.34 16-8.26L16-8.26L16-8.26Q16-6.08 16.74-4.67L16.74-4.67L16.74-4.67Q17.47-3.26 19.42-3.26L19.42-3.26L19.42-3.26Q21.38-3.26 22.59-4.19L22.59-4.19L22.59-4.19Q23.81-5.12 24.77-7.23L24.77-7.23L24.77-7.23Q26.30-10.69 27.74-18.02L27.74-18.02L27.74-18.02Q29.18-25.34 29.31-28.38L29.31-28.38L29.31-28.38Q29.44-31.42 29.44-33.73L29.44-33.73L29.44-33.73Q29.44-36.03 28.74-37.50L28.74-37.50L28.74-37.50Q28.03-38.98 26.14-38.98L26.14-38.98L26.14-38.98Q24.26-38.98 22.98-37.82L22.98-37.82L22.98-37.82Q20.61-35.65 18.88-28.86ZM92.61 1.28L92.61 1.28L92.61 1.28Q84.86 1.28 84.86-4.74L84.86-4.74L84.86-4.74Q84.86-7.36 85.98-12.45L85.98-12.45L85.98-12.45Q87.10-17.54 87.49-19.58L87.49-19.58L87.49-19.58Q88.38-24.26 88.38-25.73L88.38-25.73L88.38-25.73Q88.38-28.99 85.95-28.99L85.95-28.99L85.95-28.99Q84.35-28.99 82.82-26.78L82.82-26.78L82.82-26.78Q81.28-24.58 80.58-20.16L80.58-20.16L76.61 0L64.13 1.28L67.58-16.13L67.58-16.13Q68.16-19.01 68.67-22.27L68.67-22.27L68.67-22.27Q69.18-25.54 69.18-26.05L69.18-26.05L69.18-26.05Q69.18-28.99 67.01-28.99L67.01-28.99L67.01-28.99Q65.54-28.99 63.94-26.82L63.94-26.82L63.94-26.82Q62.34-24.64 61.44-20.16L61.44-20.16L57.54 0L44.93 1.28L51.65-32.64L62.08-33.92L60.99-27.46L60.99-27.46Q62.66-30.91 65.73-32.42L65.73-32.42L65.73-32.42Q68.80-33.92 73.60-33.92L73.60-33.92L73.60-33.92Q76.35-33.92 78.14-32.58L78.14-32.58L78.14-32.58Q79.94-31.23 80.51-29.06L80.51-29.06L80.51-29.06Q81.60-31.30 84.38-32.61L84.38-32.61L84.38-32.61Q87.17-33.92 90.59-33.92L90.59-33.92L90.59-33.92Q94.02-33.92 95.71-33.18L95.71-33.18L95.71-33.18Q97.41-32.45 98.43-31.23L98.43-31.23L98.43-31.23Q100.16-28.99 100.16-24.90L100.16-24.90L100.16-24.90Q100.16-20.86 98.43-12.48L98.43-12.48L98.43-12.48Q97.54-8.38 97.54-6.88L97.54-6.88L97.54-6.88Q97.54-5.38 98.40-4.48L98.40-4.48L98.40-4.48Q99.26-3.58 100.54-3.46L100.54-3.46L100.54-3.46Q99.90-1.28 97.70 0L97.70 0L97.70 0Q95.49 1.28 92.61 1.28ZM108.26-1.92L108.26-1.92L108.26-1.92Q106.75-3.58 106.08-6.21L106.08-6.21L106.08-6.21Q105.41-8.83 105.41-13.12L105.41-13.12L105.41-13.12Q105.41-17.41 106.88-21.31L106.88-21.31L106.88-21.31Q108.35-25.22 111.04-28.03L111.04-28.03L111.04-28.03Q116.54-33.92 125.63-33.92L125.63-33.92L125.63-33.92Q128.90-33.92 131.26-32.83L131.26-32.83L142.21-33.92L137.47-8.96L137.47-8.96Q137.28-8.19 137.28-6.78L137.28-6.78L137.28-6.78Q137.28-5.38 138.14-4.48L138.14-4.48L138.14-4.48Q139.01-3.58 140.29-3.46L140.29-3.46L140.29-3.46Q139.65-1.28 137.31 0L137.31 0L137.31 0Q134.98 1.28 132.35 1.28L132.35 1.28L132.35 1.28Q129.73 1.28 127.97 0.29L127.97 0.29L127.97 0.29Q126.21-0.70 125.70-2.37L125.70-2.37L125.70-2.37Q124.67-0.77 122.50 0.26L122.50 0.26L122.50 0.26Q120.32 1.28 117.41 1.28L117.41 1.28L117.41 1.28Q114.50 1.28 112.13 0.51L112.13 0.51L112.13 0.51Q109.76-0.26 108.26-1.92ZM121.76-27.90L121.76-27.90L121.76-27.90Q121.02-26.75 120.38-24.80L120.38-24.80L120.38-24.80Q119.74-22.85 118.69-17.63L118.69-17.63L118.69-17.63Q117.63-12.42 117.63-8.70L117.63-8.70L117.63-8.70Q117.63-4.99 118.21-3.90L118.21-3.90L118.21-3.90Q118.78-2.82 119.81-2.82L119.81-2.82L119.81-2.82Q121.86-2.82 123.36-4.77L123.36-4.77L123.36-4.77Q124.86-6.72 125.44-10.18L125.44-10.18L128.83-28.93L128.83-28.93Q127.49-30.08 125.92-30.08L125.92-30.08L125.92-30.08Q124.35-30.08 123.42-29.57L123.42-29.57L123.42-29.57Q122.50-29.06 121.76-27.90ZM165.70-17.98L165.70-17.98L165.70-17.98Q168-22.08 168-26.24L168-26.24L168-26.24Q168-28.99 166.02-28.99L166.02-28.99L166.02-28.99Q164.48-28.99 162.88-26.37L162.88-26.37L162.88-26.37Q161.22-23.74 160.70-20.35L160.70-20.35L157.38 0L144.13 1.28L150.66-32.64L161.22-33.92L160.06-27.46L160.06-27.46Q163.20-33.92 170.24-33.92L170.24-33.92L170.24-33.92Q173.95-33.92 175.97-32L175.97-32L175.97-32Q177.98-30.08 177.98-26.14L177.98-26.14L177.98-26.14Q177.98-22.21 175.39-19.71L175.39-19.71L175.39-19.71Q172.80-17.22 168.38-17.22L168.38-17.22L168.38-17.22Q166.46-17.22 165.70-17.98ZM179.07 7.23L179.07 7.23L179.07 7.23Q179.07 5.12 180.42 3.81L180.42 3.81L180.42 3.81Q181.76 2.50 183.81 2.50L183.81 2.50L210.75 2.50L210.75 2.50Q211.07 3.58 211.07 4.42L211.07 4.42L211.07 4.42Q211.07 6.34 209.76 7.68L209.76 7.68L209.76 7.68Q208.45 9.02 205.76 9.02L205.76 9.02L179.33 9.02L179.33 9.02Q179.07 8.19 179.07 7.23ZM247.94-42.69L247.94-42.69L247.94-42.69Q263.62-42.69 263.62-31.62L263.62-31.62L263.62-31.62Q263.62-25.54 259.71-21.89L259.71-21.89L259.71-21.89Q255.87-18.24 249.15-18.24L249.15-18.24L249.15-18.24Q246.02-18.24 243.58-20.03L243.58-20.03L243.58-20.03Q242.43-20.80 241.66-21.82L241.66-21.82L241.66-21.82Q246.34-21.82 248.80-24.67L248.80-24.67L248.80-24.67Q251.26-27.52 251.26-33.09L251.26-33.09L251.26-33.09Q251.26-38.66 245.76-38.66L245.76-38.66L244.22-38.66L244.22-38.66Q243.84-38.66 243.52-38.59L243.52-38.59L236.16 0L222.27 0L230.14-41.92L230.14-41.92Q236.99-42.56 240.96-42.62L240.96-42.62L240.96-42.62Q244.93-42.69 247.94-42.69ZM279.30-3.52L279.30-3.52L279.30-3.52Q277.31 1.28 270.98 1.28L270.98 1.28L270.98 1.28Q267.71 1.28 265.66-0.96L265.66-0.96L265.66-0.96Q263.94-2.94 263.94-4.93L263.94-4.93L263.94-4.93Q263.94-10.11 266.30-20.22L266.30-20.22L268.67-32.64L281.66-33.92L277.76-13.70L277.76-13.70Q276.67-8.96 276.67-7.30L276.67-7.30L276.67-7.30Q276.67-3.65 279.30-3.52ZM269.82-41.54L269.82-41.54L269.82-41.54Q269.82-44.03 271.90-45.38L271.90-45.38L271.90-45.38Q273.98-46.72 276.99-46.72L276.99-46.72L276.99-46.72Q280.00-46.72 281.82-45.38L281.82-45.38L281.82-45.38Q283.65-44.03 283.65-41.54L283.65-41.54L283.65-41.54Q283.65-39.04 281.63-37.76L281.63-37.76L281.63-37.76Q279.62-36.48 276.61-36.48L276.61-36.48L276.61-36.48Q273.60-36.48 271.71-37.76L271.71-37.76L271.71-37.76Q269.82-39.04 269.82-41.54ZM297.06 0.64L297.06 0.64L297.06 0.64Q294.02 0 292.45-0.29L292.45-0.29L292.45-0.29Q290.88-0.58 289.06-0.58L289.06-0.58L289.06-0.58Q287.23-0.58 285.44 0.06L285.44 0.06L285.44 0.06Q284.48-0.51 283.87-1.66L283.87-1.66L283.87-1.66Q283.26-2.82 283.26-4.61L283.26-4.61L283.26-4.61Q283.26-8.38 287.10-11.26L287.10-11.26L303.36-22.98L303.36-22.98Q298.82-24.26 294.69-24.26L294.69-24.26L294.69-24.26Q290.56-24.26 289.09-21.44L289.09-21.44L289.09-21.44Q286.91-24 286.91-28.03L286.91-28.03L286.91-28.03Q286.91-30.72 288.86-32.48L288.86-32.48L288.86-32.48Q290.82-34.24 294.91-34.24L294.91-34.24L294.91-34.24Q297.22-34.24 299.30-33.95L299.30-33.95L299.30-33.95Q301.38-33.66 303.23-33.41L303.23-33.41L306.69-32.90L306.69-32.90Q308.35-32.64 310.05-32.64L310.05-32.64L310.05-32.64Q311.74-32.64 313.02-33.34L313.02-33.34L313.02-33.34Q314.69-31.81 314.69-29.70L314.69-29.70L314.69-29.70Q314.69-26.37 310.59-22.91L310.59-22.91L294.40-10.82L294.40-10.82Q299.39-9.34 301.95-9.34L301.95-9.34L301.95-9.34Q307.33-9.34 309.63-11.90L309.63-11.90L309.63-11.90Q311.42-9.86 311.42-6.30L311.42-6.30L311.42-6.30Q311.42-2.75 309.12-0.74L309.12-0.74L309.12-0.74Q306.82 1.28 302.66 1.28L302.66 1.28L302.66 1.28Q300.10 1.28 297.06 0.64ZM319.78-1.92L319.78-1.92L319.78-1.92Q318.27-3.58 317.60-6.21L317.60-6.21L317.60-6.21Q316.93-8.83 316.93-13.12L316.93-13.12L316.93-13.12Q316.93-17.41 318.40-21.31L318.40-21.31L318.40-21.31Q319.87-25.22 322.56-28.03L322.56-28.03L322.56-28.03Q328.06-33.92 337.15-33.92L337.15-33.92L337.15-33.92Q340.42-33.92 342.78-32.83L342.78-32.83L353.73-33.92L348.99-8.96L348.99-8.96Q348.80-8.19 348.80-6.78L348.80-6.78L348.80-6.78Q348.80-5.38 349.66-4.48L349.66-4.48L349.66-4.48Q350.53-3.58 351.81-3.46L351.81-3.46L351.81-3.46Q351.17-1.28 348.83 0L348.83 0L348.83 0Q346.50 1.28 343.87 1.28L343.87 1.28L343.87 1.28Q341.25 1.28 339.49 0.29L339.49 0.29L339.49 0.29Q337.73-0.70 337.22-2.37L337.22-2.37L337.22-2.37Q336.19-0.77 334.02 0.26L334.02 0.26L334.02 0.26Q331.84 1.28 328.93 1.28L328.93 1.28L328.93 1.28Q326.02 1.28 323.65 0.51L323.65 0.51L323.65 0.51Q321.28-0.26 319.78-1.92ZM333.28-27.90L333.28-27.90L333.28-27.90Q332.54-26.75 331.90-24.80L331.90-24.80L331.90-24.80Q331.26-22.85 330.21-17.63L330.21-17.63L330.21-17.63Q329.15-12.42 329.15-8.70L329.15-8.70L329.15-8.70Q329.15-4.99 329.73-3.90L329.73-3.90L329.73-3.90Q330.30-2.82 331.33-2.82L331.33-2.82L331.33-2.82Q333.38-2.82 334.88-4.77L334.88-4.77L334.88-4.77Q336.38-6.72 336.96-10.18L336.96-10.18L340.35-28.93L340.35-28.93Q339.01-30.08 337.44-30.08L337.44-30.08L337.44-30.08Q335.87-30.08 334.94-29.57L334.94-29.57L334.94-29.57Q334.02-29.06 333.28-27.90ZM377.22-17.98L377.22-17.98L377.22-17.98Q379.52-22.08 379.52-26.24L379.52-26.24L379.52-26.24Q379.52-28.99 377.54-28.99L377.54-28.99L377.54-28.99Q376-28.99 374.40-26.37L374.40-26.37L374.40-26.37Q372.74-23.74 372.22-20.35L372.22-20.35L368.90 0L355.65 1.28L362.18-32.64L372.74-33.92L371.58-27.46L371.58-27.46Q374.72-33.92 381.76-33.92L381.76-33.92L381.76-33.92Q385.47-33.92 387.49-32L387.49-32L387.49-32Q389.50-30.08 389.50-26.14L389.50-26.14L389.50-26.14Q389.50-22.21 386.91-19.71L386.91-19.71L386.91-19.71Q384.32-17.22 379.90-17.22L379.90-17.22L379.90-17.22Q377.98-17.22 377.22-17.98ZM410.56-17.98L410.56-17.98L410.56-17.98Q412.86-22.08 412.86-26.24L412.86-26.24L412.86-26.24Q412.86-28.99 410.88-28.99L410.88-28.99L410.88-28.99Q409.34-28.99 407.74-26.37L407.74-26.37L407.74-26.37Q406.08-23.74 405.57-20.35L405.57-20.35L402.24 0L388.99 1.28L395.52-32.64L406.08-33.92L404.93-27.46L404.93-27.46Q408.06-33.92 415.10-33.92L415.10-33.92L415.10-33.92Q418.82-33.92 420.83-32L420.83-32L420.83-32Q422.85-30.08 422.85-26.14L422.85-26.14L422.85-26.14Q422.85-22.21 420.26-19.71L420.26-19.71L420.26-19.71Q417.66-17.22 413.25-17.22L413.25-17.22L413.25-17.22Q411.33-17.22 410.56-17.98ZM437.82 1.28L437.82 1.28L437.82 1.28Q423.74 1.28 423.74-11.97L423.74-11.97L423.74-11.97Q423.74-21.38 428.93-27.46L428.93-27.46L428.93-27.46Q434.43-33.92 443.97-33.92L443.97-33.92L443.97-33.92Q450.88-33.92 454.40-30.72L454.40-30.72L454.40-30.72Q457.92-27.52 457.92-20.80L457.92-20.80L457.92-20.80Q457.92-10.56 452.42-4.61L452.42-4.61L452.42-4.61Q447.04 1.28 437.82 1.28ZM439.49-26.56L439.49-26.56L439.49-26.56Q438.72-24.83 438.11-22.24L438.11-22.24L438.11-22.24Q437.50-19.65 436.74-15.55L436.74-15.55L436.74-15.55Q435.97-11.46 435.97-6.40L435.97-6.40L435.97-6.40Q435.97-4.74 436.51-3.65L436.51-3.65L436.51-3.65Q437.06-2.56 438.53-2.56L438.53-2.56L438.53-2.56Q440-2.56 440.93-3.26L440.93-3.26L440.93-3.26Q441.86-3.97 442.56-5.63L442.56-5.63L442.56-5.63Q443.84-8.58 444.86-14.05L444.86-14.05L444.86-14.05Q445.89-19.52 445.98-21.89L445.98-21.89L445.98-21.89Q446.08-24.26 446.08-26.02L446.08-26.02L446.08-26.02Q446.08-27.78 445.57-28.93L445.57-28.93L445.57-28.93Q445.06-30.08 443.62-30.08L443.62-30.08L443.62-30.08Q442.18-30.08 441.22-29.18L441.22-29.18L441.22-29.18Q440.26-28.29 439.49-26.56ZM459.78-3.78L459.78-3.78L459.78-3.78Q459.78-6.21 461.66-7.55L461.66-7.55L461.66-7.55Q463.55-8.90 466.24-8.90L466.24-8.90L466.24-8.90Q468.93-8.90 470.56-7.55L470.56-7.55L470.56-7.55Q472.19-6.21 472.19-3.78L472.19-3.78L472.19-3.78Q472.19-1.34 470.37-0.03L470.37-0.03L470.37-0.03Q468.54 1.28 465.86 1.28L465.86 1.28L465.86 1.28Q463.17 1.28 461.47-0.03L461.47-0.03L461.47-0.03Q459.78-1.34 459.78-3.78ZM519.68-26.56L519.68-26.56L519.68-26.56Q519.68 0.70 490.11 0.70L490.11 0.70L490.11 0.70Q485.38 0.70 477.57-0.45L477.57-0.45L484.74-38.27L484.74-38.27Q485.25-40.83 485.57-42.30L485.57-42.30L485.57-42.30Q495.30-43.01 499.62-43.01L499.62-43.01L499.62-43.01Q503.94-43.01 507.90-42.11L507.90-42.11L507.90-42.11Q511.87-41.22 514.50-39.23L514.50-39.23L514.50-39.23Q519.68-35.33 519.68-26.56ZM506.50-28.93L506.50-28.93L506.50-28.93Q506.50-38.46 499.65-38.46L499.65-38.46L499.01-38.46L499.01-38.46Q498.69-38.46 498.37-38.40L498.37-38.40L491.78-4.03L491.78-4.03Q492.03-3.90 492.29-3.90L492.29-3.90L492.80-3.90L492.80-3.90Q495.17-3.90 497.63-5.38L497.63-5.38L497.63-5.38Q500.10-6.85 502.02-9.86L502.02-9.86L502.02-9.86Q506.50-16.83 506.50-28.93ZM547.90-29.57L547.90-29.57L547.90-29.57Q548.86-31.49 548.86-33.28L548.86-33.28L548.86-33.28Q548.86-35.07 548.67-36.06L548.67-36.06L548.67-36.06Q548.48-37.06 548.03-37.82L548.03-37.82L548.03-37.82Q547.07-39.49 545.15-39.49L545.15-39.49L545.15-39.49Q542.78-39.49 540.86-37.76L540.86-37.76L540.86-37.76Q538.82-35.97 538.82-33.15L538.82-33.15L538.82-33.15Q538.82-31.36 540.06-29.98L540.06-29.98L540.06-29.98Q541.31-28.61 543.23-27.33L543.23-27.33L543.23-27.33Q545.15-26.05 547.33-24.77L547.33-24.77L547.33-24.77Q549.50-23.49 551.42-21.95L551.42-21.95L551.42-21.95Q555.84-18.43 555.84-13.70L555.84-13.70L555.84-13.70Q555.84-10.50 554.14-7.78L554.14-7.78L554.14-7.78Q552.45-5.06 549.63-3.07L549.63-3.07L549.63-3.07Q543.49 1.28 535.36 1.28L535.36 1.28L535.36 1.28Q528.77 1.28 525.38-0.86L525.38-0.86L525.38-0.86Q521.98-3.01 521.98-6.27L521.98-6.27L521.98-6.27Q521.98-12.10 526.53-13.57L526.53-13.57L526.53-13.57Q527.81-14.02 529.76-14.02L529.76-14.02L529.76-14.02Q531.71-14.02 533.95-13.18L533.95-13.18L533.95-13.18Q532.93-10.56 532.93-8.19L532.93-8.19L532.93-8.19Q532.93-3.07 536.58-3.07L536.58-3.07L536.58-3.07Q538.94-3.07 540.90-4.80L540.90-4.80L540.90-4.80Q542.85-6.53 542.85-8.48L542.85-8.48L542.85-8.48Q542.85-10.43 541.60-11.84L541.60-11.84L541.60-11.84Q540.35-13.25 538.50-14.37L538.50-14.37L538.50-14.37Q536.64-15.49 534.50-16.58L534.50-16.58L534.50-16.58Q532.35-17.66 530.50-19.20L530.50-19.20L530.50-19.20Q526.14-22.72 526.14-28.35L526.14-28.35L526.14-28.35Q526.14-32 527.94-34.85L527.94-34.85L527.94-34.85Q529.73-37.70 532.61-39.62L532.61-39.62L532.61-39.62Q538.37-43.52 545.44-43.52L545.44-43.52L545.44-43.52Q552.51-43.52 555.94-41.41L555.94-41.41L555.94-41.41Q559.36-39.30 559.36-35.71L559.36-35.71L559.36-35.71Q559.36-32.58 556.93-30.59L556.93-30.59L556.93-30.59Q554.82-28.93 552.26-28.93L552.26-28.93L552.26-28.93Q549.70-28.93 547.90-29.57ZM586.62-20.61L599.55-21.76L599.55-21.76Q594.94-11.65 594.94 0.06L594.94 0.06L594.94 0.06Q593.22 1.28 590.69 1.28L590.69 1.28L590.69 1.28Q588.16 1.28 586.56 0.10L586.56 0.10L586.56 0.10Q584.96-1.09 584.64-2.30L584.64-2.30L584.64-2.30Q583.04-0.64 580.45 0.32L580.45 0.32L580.45 0.32Q577.86 1.28 575.10 1.28L575.10 1.28L575.10 1.28Q572.35 1.28 569.95 0.38L569.95 0.38L569.95 0.38Q567.55-0.51 565.70-2.50L565.70-2.50L565.70-2.50Q561.60-6.85 561.60-15.10L561.60-15.10L561.60-15.10Q561.60-27.90 568.45-35.58L568.45-35.58L568.45-35.58Q575.49-43.52 587.97-43.52L587.97-43.52L587.97-43.52Q596.61-43.52 599.68-39.04L599.68-39.04L599.68-39.04Q600.64-37.63 600.64-35.94L600.64-35.94L600.64-35.94Q600.64-34.24 599.90-32.80L599.90-32.80L599.90-32.80Q599.17-31.36 598.02-30.21L598.02-30.21L598.02-30.21Q595.26-27.65 591.87-27.65L591.87-27.65L591.87-27.65Q590.53-27.65 589.25-28.10L589.25-28.10L589.25-28.10Q589.50-30.02 589.50-32.26L589.50-32.26L589.50-32.26Q589.50-34.50 589.34-35.52L589.34-35.52L589.34-35.52Q589.18-36.54 588.80-37.38L588.80-37.38L588.80-37.38Q587.97-39.10 586.14-39.10L586.14-39.10L586.14-39.10Q584.32-39.10 582.30-37.15L582.30-37.15L582.30-37.15Q580.29-35.20 578.69-32L578.69-32L578.69-32Q575.17-24.83 575.17-16.19L575.17-16.19L575.17-16.19Q575.17-12.22 576.70-9.41L576.70-9.41L576.70-9.41Q578.37-6.34 581.31-6.34L581.31-6.34L581.31-6.34Q582.34-6.34 583.26-6.85L583.26-6.85L583.26-6.85Q584.19-7.36 584.58-7.74L584.58-7.74L586.62-20.61Z" fill="#ccc"></path></g></g><style>text {
  font-size: 64px;
  font-family: Arial Black;
  dominant-baseline: central;
  text-anchor: middle;
}</style></svg>